<?xml version="1.0" encoding="UTF-8" standalone="no"?>
<!DOCTYPE svg PUBLIC "-//W3C//DTD SVG 1.1//EN" "http://www.w3.org/Graphics/SVG/1.1/DTD/svg11.dtd">
<svg width="100%" height="100%" viewBox="0 0 485 67" version="1.1" xmlns="http://www.w3.org/2000/svg" xmlns:xlink="http://www.w3.org/1999/xlink" xml:space="preserve" xmlns:serif="http://www.serif.com/" style="fill-rule:evenodd;clip-rule:evenodd;stroke-linejoin:round;stroke-miterlimit:2;">
    <g transform="matrix(1,0,0,1,-523.144,-224.197)">
        <g transform="matrix(1.02697,0,0,1.01473,311.773,-22.9731)">
            <path d="M230.348,257.839C234.732,257.839 238.492,258.759 241.628,260.599C244.764,262.439 247.188,264.887 248.9,267.943C250.612,270.999 251.548,274.335 251.708,277.951L238.268,277.951C238.108,276.831 237.748,275.663 237.188,274.447C236.628,273.231 235.804,272.199 234.716,271.351C233.628,270.503 232.204,270.079 230.444,270.079C227.596,270.079 225.3,271.207 223.556,273.463C221.812,275.719 220.94,279.119 220.94,283.663C220.94,288.143 221.836,291.647 223.628,294.175C225.42,296.703 227.804,297.967 230.78,297.967C232.508,297.967 233.908,297.503 234.98,296.575C236.052,295.647 236.86,294.575 237.404,293.359C237.948,292.143 238.3,291.071 238.46,290.143L251.468,290.143C251.372,293.631 250.452,296.831 248.708,299.743C246.964,302.655 244.54,304.991 241.436,306.751C238.332,308.511 234.636,309.391 230.348,309.391C225.676,309.391 221.492,308.343 217.796,306.247C214.1,304.151 211.18,301.183 209.036,297.343C206.892,293.503 205.82,289.007 205.82,283.855C205.82,278.703 206.86,274.183 208.94,270.295C211.02,266.407 213.908,263.359 217.604,261.151C221.3,258.943 225.548,257.839 230.348,257.839Z" style="fill-rule:nonzero;"/>
            <path d="M260.252,308.431L260.252,258.799L275.996,258.799L275.996,271.519C276.764,268.927 277.876,266.599 279.332,264.535C280.788,262.471 282.588,260.839 284.732,259.639C286.876,258.439 289.356,257.839 292.172,257.839C292.524,257.839 292.836,257.847 293.108,257.863C293.38,257.879 293.548,257.919 293.612,257.983L293.612,273.487C293.452,273.423 293.252,273.375 293.012,273.343C292.772,273.311 292.524,273.295 292.268,273.295C289.132,272.975 286.548,273.023 284.516,273.439C282.484,273.855 280.884,274.527 279.716,275.455C278.548,276.383 277.732,277.487 277.268,278.767C276.804,280.047 276.572,281.439 276.572,282.943L276.572,308.431L260.252,308.431Z" style="fill-rule:nonzero;"/>
            <path d="M314.06,287.359C314.028,289.631 314.38,291.543 315.116,293.095C315.852,294.647 316.892,295.823 318.236,296.623C319.58,297.423 321.148,297.823 322.94,297.823C324.988,297.823 326.804,297.399 328.388,296.551C329.972,295.703 331.132,294.223 331.868,292.111L346.46,292.111C345.916,295.727 344.484,298.823 342.164,301.399C339.844,303.975 337.02,305.951 333.692,307.327C330.364,308.703 326.924,309.391 323.372,309.391C318.316,309.391 313.876,308.351 310.052,306.271C306.228,304.191 303.252,301.263 301.124,297.487C298.996,293.711 297.932,289.279 297.932,284.191C297.932,279.359 298.908,274.951 300.86,270.967C302.812,266.983 305.628,263.799 309.308,261.415C312.988,259.031 317.42,257.839 322.604,257.839C327.852,257.839 332.236,258.935 335.756,261.127C339.276,263.319 341.924,266.327 343.7,270.151C345.476,273.975 346.364,278.351 346.364,283.279L346.364,287.359L314.06,287.359ZM314.012,277.951L331.196,277.951C331.196,276.319 330.876,274.823 330.236,273.463C329.596,272.103 328.636,271.023 327.356,270.223C326.076,269.423 324.492,269.023 322.604,269.023C320.876,269.023 319.372,269.447 318.092,270.295C316.812,271.143 315.804,272.247 315.068,273.607C314.332,274.967 313.98,276.415 314.012,277.951Z" style="fill-rule:nonzero;"/>
            <path d="M422.732,258.799L405.836,308.431L393.548,308.431L385.196,281.359L376.7,308.431L364.844,308.431L348.428,258.799L362.78,258.799L371.42,286.255L371.564,286.255L379.772,258.799L391.292,258.799L399.404,286.303L399.596,286.303L408.044,258.799L422.732,258.799Z" style="fill-rule:nonzero;"/>
            <path d="M447.884,308.431L447.884,258.799L463.628,258.799L463.628,271.519C464.396,268.927 465.508,266.599 466.964,264.535C468.42,262.471 470.22,260.839 472.364,259.639C474.508,258.439 476.988,257.839 479.804,257.839C480.156,257.839 480.468,257.847 480.74,257.863C481.012,257.879 481.18,257.919 481.244,257.983L481.244,273.487C481.084,273.423 480.884,273.375 480.644,273.343C480.404,273.311 480.156,273.295 479.9,273.295C476.764,272.975 474.18,273.023 472.148,273.439C470.116,273.855 468.516,274.527 467.348,275.455C466.18,276.383 465.364,277.487 464.9,278.767C464.436,280.047 464.204,281.439 464.204,282.943L464.204,308.431L447.884,308.431Z" style="fill-rule:nonzero;"/>
            <path d="M502.124,309.391C499.02,309.391 496.18,308.791 493.604,307.591C491.028,306.391 488.98,304.639 487.46,302.335C485.94,300.031 485.18,297.215 485.18,293.887C485.18,288.479 487.268,284.319 491.444,281.407C495.62,278.495 502.156,277.023 511.052,276.991L516.092,276.943L516.092,274.399C516.092,272.447 515.54,270.983 514.436,270.007C513.332,269.031 511.596,268.559 509.228,268.591C507.596,268.623 505.932,269.015 504.236,269.767C502.54,270.519 501.324,271.903 500.588,273.919L487.196,273.919C487.388,270.175 488.5,267.119 490.532,264.751C492.564,262.383 495.268,260.639 498.644,259.519C502.02,258.399 505.804,257.839 509.996,257.839C515.404,257.839 519.692,258.487 522.86,259.783C526.028,261.079 528.3,262.887 529.676,265.207C531.052,267.527 531.74,270.255 531.74,273.391L531.74,308.431L518.156,308.431L516.764,300.223C515.164,303.711 513.188,306.111 510.836,307.423C508.484,308.735 505.58,309.391 502.124,309.391ZM507.788,298.879C508.876,298.879 509.916,298.687 510.908,298.303C511.9,297.919 512.78,297.383 513.548,296.695C514.316,296.007 514.924,295.247 515.372,294.415C515.82,293.583 516.06,292.687 516.092,291.727L516.092,284.959L512.06,285.007C510.396,285.007 508.676,285.231 506.9,285.679C505.124,286.127 503.628,286.871 502.412,287.911C501.196,288.951 500.588,290.383 500.588,292.207C500.588,294.287 501.3,295.919 502.724,297.103C504.148,298.287 505.836,298.879 507.788,298.879Z" style="fill-rule:nonzero;"/>
            <path d="M573.308,269.983L562.412,269.983L562.46,294.463C562.46,295.455 562.612,296.191 562.916,296.671C563.22,297.151 563.644,297.471 564.188,297.631C564.732,297.791 565.404,297.871 566.204,297.871L573.404,297.871L573.404,307.711C572.732,307.999 571.692,308.295 570.284,308.599C568.876,308.903 566.812,309.055 564.092,309.055C559.324,309.055 555.636,308.455 553.028,307.255C550.42,306.055 548.612,304.407 547.604,302.311C546.596,300.215 546.092,297.839 546.092,295.183L546.092,269.983L538.028,269.983L538.028,258.799L546.668,258.799L550.844,243.583L562.412,243.583L562.412,258.703L573.308,258.703L573.308,269.983Z" style="fill-rule:nonzero;"/>
            <path d="M594.668,287.359C594.636,289.631 594.988,291.543 595.724,293.095C596.46,294.647 597.5,295.823 598.844,296.623C600.188,297.423 601.756,297.823 603.548,297.823C605.596,297.823 607.412,297.399 608.996,296.551C610.58,295.703 611.74,294.223 612.476,292.111L627.068,292.111C626.524,295.727 625.092,298.823 622.772,301.399C620.452,303.975 617.628,305.951 614.3,307.327C610.972,308.703 607.532,309.391 603.98,309.391C598.924,309.391 594.484,308.351 590.66,306.271C586.836,304.191 583.86,301.263 581.732,297.487C579.604,293.711 578.54,289.279 578.54,284.191C578.54,279.359 579.516,274.951 581.468,270.967C583.42,266.983 586.236,263.799 589.916,261.415C593.596,259.031 598.028,257.839 603.212,257.839C608.46,257.839 612.844,258.935 616.364,261.127C619.884,263.319 622.532,266.327 624.308,270.151C626.084,273.975 626.972,278.351 626.972,283.279L626.972,287.359L594.668,287.359ZM594.62,277.951L611.804,277.951C611.804,276.319 611.484,274.823 610.844,273.463C610.204,272.103 609.244,271.023 607.964,270.223C606.684,269.423 605.1,269.023 603.212,269.023C601.484,269.023 599.98,269.447 598.7,270.295C597.42,271.143 596.412,272.247 595.676,273.607C594.94,274.967 594.588,276.415 594.62,277.951Z" style="fill-rule:nonzero;"/>
            <path d="M656.108,309.391C652.652,309.391 649.276,308.815 645.98,307.663C642.684,306.511 639.868,304.671 637.532,302.143C635.196,299.615 633.692,296.319 633.02,292.255L647.036,292.255C647.452,293.951 648.204,295.247 649.292,296.143C650.38,297.039 651.548,297.647 652.796,297.967C654.044,298.287 655.116,298.447 656.012,298.447C658.38,298.447 660.3,298.111 661.772,297.439C663.244,296.767 663.98,295.743 663.98,294.367C663.98,293.215 663.524,292.311 662.612,291.655C661.7,290.999 660.124,290.479 657.884,290.095L649.82,288.607C645.276,287.743 641.604,286.151 638.804,283.831C636.004,281.511 634.588,278.223 634.556,273.967C634.524,270.927 635.34,268.191 637.004,265.759C638.668,263.327 641.116,261.399 644.348,259.975C647.58,258.551 651.548,257.839 656.252,257.839C662.684,257.839 667.804,259.247 671.612,262.063C675.42,264.879 677.34,268.767 677.372,273.727L663.932,273.727C663.58,272.031 662.676,270.743 661.22,269.863C659.764,268.983 658.028,268.543 656.012,268.543C653.964,268.543 652.244,268.887 650.852,269.575C649.46,270.263 648.764,271.295 648.764,272.671C648.764,273.727 649.372,274.575 650.588,275.215C651.804,275.855 653.74,276.431 656.396,276.943L663.644,278.431C666.62,279.167 669.036,280.151 670.892,281.383C672.748,282.615 674.18,283.951 675.188,285.391C676.196,286.831 676.892,288.263 677.276,289.687C677.66,291.111 677.852,292.367 677.852,293.455C677.852,296.879 676.908,299.775 675.02,302.143C673.132,304.511 670.548,306.311 667.268,307.543C663.988,308.775 660.268,309.391 656.108,309.391Z" style="fill-rule:nonzero;"/>
        </g>
    </g>
</svg>
